<?xml version="1.0" encoding="UTF-8" standalone="no"?>
<svg xmlns:dc="http://purl.org/dc/elements/1.1/" xmlns:cc="http://creativecommons.org/ns#" xmlns:rdf="http://www.w3.org/1999/02/22-rdf-syntax-ns#" xmlns:svg="http://www.w3.org/2000/svg" xmlns="http://www.w3.org/2000/svg" version="1.1" x="0px" y="0px" width="1252.046" height="160.48215" viewBox="-18.666 -109.9 1252.046 160.48215" enable-background="new -18.666 -109.9 1310 380" xml:space="preserve" id="svg88">
    <style>
.logo_svg .logo_aroma path,
.logo_svg .logo_aroma polygon {
    fill: #5C5696!important;
}

.logo_svg .logo_feuilles path:first-child {
    fill: #b0c700!important;
}

.logo_svg .logo_feuilles path:last-child {
    fill: #7fa212!important;
}

.logo_svg .logo_zone path,
.logo_svg .logo_zone polygon {
    fill: #ffff!important;
}

.logo_svg .logo_com rect,
.logo_svg .logo_com path,
.logo_svg .logo_com polygon {
    fill: #b0c700!important
}

.logo_svg .logo_baseline rect,
.logo_svg .logo_baseline polygon,
.logo_svg .logo_baseline path {
    fill: #ffff!important;
}
    </style>
    <metadata id="metadata92">
        <rdf:RDF>
            <cc:Work rdf:about="">
                <dc:format>image/svg+xml</dc:format>
                <dc:type rdf:resource="http://purl.org/dc/dcmitype/StillImage" />
                <dc:title></dc:title>
            </cc:Work>
        </rdf:RDF>
    </metadata>
    <defs id="defs2" />
    <g id="g3806" class="logo_svg" transform="translate(-0.963297,2.5141469)">
        <g id="g3767" class="logo_com">
            <rect x="1128.5093" y="-19.341997" width="6.678" height="7.8870001" id="rect4" />
            <path d="m 1157.3943,-35.378996 c 0,-5.257 -1.064,-7.533 -4.353,-7.533 -3.692,0 -4.547,3.695 -4.547,13.903 0,10.93 1.518,12.898 4.655,12.898 2.627,0 4.547,-1.361 4.547,-9.155 h 7.292 c 0,7.794 -1.931,14.515 -11.487,14.515 -10.922,0 -12.291,-7.785 -12.291,-18.759 0,-10.977 1.369,-18.763 12.291,-18.763 10.41,0 11.176,7.637 11.176,12.894 z"  />
            <path d="m 1183.1763,-48.275996 c 10.922,0 12.289,7.789 12.289,18.768 0,10.972 -1.367,18.757 -12.289,18.757 -10.934,0 -12.291,-7.785 -12.291,-18.757 0,-10.979 1.358,-18.768 12.291,-18.768 m 0,32.165 c 4.294,0 5.001,-3.688 5.001,-13.397 0,-9.661 -0.707,-13.407 -5.001,-13.407 -4.305,0 -5.009,3.746 -5.009,13.407 10e-4,9.709 0.705,13.397 5.009,13.397"  />
            <polygon points="1238.85,100.959 1233.178,100.959 1226.761,72.13 1226.66,72.13 1226.66,100.959 1219.982,100.959 1219.982,64.847 1230.803,64.847 1235.963,90.337 1236.063,90.337 1241.283,64.847 1252.046,64.847 1252.046,100.959 1245.376,100.959 1245.376,72.13 1245.267,72.13 " transform="translate(-17.702703,-112.414)" />
        </g>
        <g id="g3761" class="logo_baseline">
            <polygon points="73.99,159.995 60.747,159.995 60.747,135.169 73.574,135.169 73.574,137.889 63.807,137.889 63.807,145.673 73.019,145.673 73.019,148.383 63.807,148.383 63.807,157.284 73.99,157.284 " transform="translate(-17.702703,-112.414)" />
            <polygon points="92.644,159.995 99.247,147.377 93.129,135.169 96.539,135.169 101.055,144.454 105.608,135.169 108.804,135.169 102.618,147.377 109.223,159.995 105.813,159.995 100.881,150.053 95.84,159.995 " transform="translate(-17.702703,-112.414)" />
            <path d="m 110.7723,22.755004 h 6.333 c 2.151,0 7.676,0 7.676,7.132 0,4.624 -2.95,7.199 -7.16,7.199 h -3.786 v 10.495 h -3.062 v -24.826 z m 3.062,11.826 h 3.646 c 2.229,0 4.107,-1.531 4.107,-4.829 0,-2.716 -1.288,-4.488 -4.31,-4.488 h -3.442 v 9.317 z"  />
            <polygon points="175.301,159.995 162.057,159.995 162.057,135.169 174.883,135.169 174.883,137.889 165.118,137.889 165.118,145.673 174.328,145.673 174.328,148.383 165.118,148.383 165.118,157.284 175.301,157.284 " transform="translate(-17.702703,-112.414)" />
            <path d="m 177.2423,22.755004 h 8.029 c 3.893,0 6.361,2.3 6.361,6.229 0,2.71 -0.938,5.56 -3.825,6.259 v 0.063 c 2.155,0.249 3.375,2.022 3.513,4.136 l 0.208,4.246 c 0.139,2.743 0.592,3.439 1.322,3.893 h -3.686 c -0.522,-0.52 -0.763,-2.366 -0.831,-3.583 l -0.211,-3.854 c -0.244,-3.406 -2.121,-3.616 -3.685,-3.616 h -4.134 v 11.053 h -3.06 v -24.826 z m 3.06,11.268 h 3.024 c 1.803,0 5.109,0 5.109,-4.798 0,-2.434 -1.636,-3.96 -4.489,-3.96 h -3.645 v 8.758 z"  />
            <polygon points="234.384,137.889 228.159,137.889 228.159,135.169 243.7,135.169 243.7,137.889 237.442,137.889 237.442,159.995 234.384,159.995 " transform="translate(-17.702703,-112.414)" />
            <polygon points="290.204,159.995 287.143,159.995 287.143,135.169 291.105,135.169 299.309,155.892 299.381,155.892 299.381,135.169 302.437,135.169 302.437,159.995 298.234,159.995 290.271,139.898 290.204,139.898 " transform="translate(-17.702703,-112.414)" />
            <path d="m 310.9873,22.755004 h 4.104 l 6.675,24.825 h -3.2 l -1.773,-6.816 h -7.926 l -1.841,6.816 h -3.197 z m -1.493,15.514 h 6.675 l -3.165,-11.997 h -0.069 z"  />
            <polygon points="360.994,137.889 354.771,137.889 354.771,135.169 370.31,135.169 370.31,137.889 364.052,137.889 364.052,159.995 360.994,159.995 " transform="translate(-17.702703,-112.414)" />
            <path d="m 371.8283,22.755004 h 3.057 v 17.451 c 0,3.658 1.182,5.361 4.204,5.361 3.268,0 4.241,-1.879 4.241,-5.361 v -17.451 h 3.063 v 17.451 c 0,4.766 -2.437,7.861 -7.304,7.861 -4.971,0 -7.26,-2.747 -7.26,-7.861 v -17.451 z"  />
            <path d="m 407.0833,22.755004 h 8.029 c 3.896,0 6.363,2.3 6.363,6.229 0,2.71 -0.941,5.56 -3.827,6.259 v 0.063 c 2.157,0.249 3.371,2.022 3.511,4.136 l 0.212,4.246 c 0.136,2.743 0.586,3.439 1.32,3.893 h -3.684 c -0.522,-0.52 -0.763,-2.366 -0.837,-3.583 l -0.206,-3.854 c -0.244,-3.406 -2.121,-3.616 -3.685,-3.616 h -4.137 v 11.053 h -3.059 z m 3.059,11.268 h 3.024 c 1.807,0 5.106,0 5.106,-4.798 0,-2.434 -1.63,-3.96 -4.483,-3.96 h -3.648 v 8.758 z"  />
            <polygon points="473.067,159.995 459.823,159.995 459.823,135.169 472.65,135.169 472.65,137.889 462.886,137.889 462.886,145.673 472.097,145.673 472.097,148.383 462.886,148.383 462.886,157.284 473.067,157.284 " transform="translate(-17.702703,-112.414)" />
            <polygon points="505.851,159.995 492.708,159.995 492.708,135.169 495.772,135.169 495.772,157.284 505.851,157.284 " transform="translate(-17.702703,-112.414)" />
            <polygon points="562.535,159.995 549.293,159.995 549.293,135.169 562.115,135.169 562.115,137.889 552.353,137.889 552.353,145.673 561.56,145.673 561.56,148.383 552.353,148.383 552.353,157.284 562.535,157.284 " transform="translate(-17.702703,-112.414)" />
            <polygon points="585.243,159.995 582.179,159.995 582.179,135.169 586.141,135.169 594.341,155.892 594.416,155.892 594.416,135.169 597.472,135.169 597.472,159.995 593.268,159.995 585.305,139.898 585.243,139.898 " transform="translate(-17.702703,-112.414)" />
            <path d="m 635.4833,29.187004 c 0,-2.605 -0.94,-4.409 -3.858,-4.409 -2.573,0 -4.104,1.383 -4.104,4.036 0,6.989 11.717,2.814 11.717,11.887 0,5.73 -4.208,7.367 -7.715,7.367 -5.806,0 -7.518,-2.987 -7.518,-8.281 h 3.067 c 0,2.786 0.172,5.781 4.659,5.781 2.43,0 4.305,-1.741 4.305,-4.382 0,-7.022 -11.711,-2.953 -11.711,-12.061 0,-2.299 0.971,-6.847 7.262,-6.847 4.734,0 6.887,2.367 6.957,6.909 z"  />
            <path d="m 674.6913,35.168004 c 0,6.259 -1.144,12.9 -7.99,12.9 -6.846,0 -7.995,-6.641 -7.995,-12.9 0,-6.253 1.149,-12.89 7.995,-12.89 6.846,0 7.99,6.636 7.99,12.89 m -12.793,0 c 0,5.744 0.562,10.4 4.803,10.4 4.235,0 4.795,-4.656 4.795,-10.4 0,-5.733 -0.56,-10.389 -4.795,-10.389 -4.241,-0.001 -4.803,4.655 -4.803,10.389"  />
            <rect x="695.10028" y="22.755009" width="3.0610001" height="24.825001" id="rect46" />
            <polygon points="739.75,159.995 736.69,159.995 736.69,135.169 740.657,135.169 748.861,155.892 748.923,155.892 748.923,135.169 751.986,135.169 751.986,159.995 747.778,159.995 739.822,139.898 739.75,139.898 " transform="translate(-17.702703,-112.414)" />
            <path d="m 765.7013,29.187004 c 0,-2.605 -0.943,-4.409 -3.862,-4.409 -2.569,0 -4.1,1.383 -4.1,4.036 0,6.989 11.713,2.814 11.713,11.887 0,5.73 -4.207,7.367 -7.724,7.367 -5.797,0 -7.5,-2.987 -7.5,-8.281 h 3.054 c 0,2.786 0.181,5.781 4.656,5.781 2.441,0 4.319,-1.741 4.319,-4.382 0,-7.022 -11.723,-2.953 -11.723,-12.061 0,-2.299 0.977,-6.847 7.27,-6.847 4.728,0 6.883,2.367 6.949,6.909 z"  />
            <path d="m 826.1473,40.701004 c 0.483,-1.259 0.794,-2.642 0.97,-4.835 h 2.709 c 0,1.807 -1.077,6.009 -2.013,7.231 l 3.195,4.48 h -3.305 l -1.666,-2.325 c -1.907,1.809 -3.443,2.815 -6.12,2.815 -6.048,0 -7.37,-4.623 -7.37,-6.882 0,-2.573 1.358,-4.868 3.377,-6.432 l 1.804,-1.358 -0.764,-1.25 c -0.901,-1.388 -1.804,-2.777 -1.804,-4.513 0,-2.925 2.324,-4.876 5.14,-4.876 3.129,0 5.256,1.359 5.256,4.729 0,2.437 -1.703,3.998 -3.406,5.428 l -0.914,0.763 z m -6.992,-5.428 c -1.984,1.183 -3.546,3.063 -3.546,5.664 0,3.024 2.119,4.631 4.557,4.631 1.942,0 3.264,-1.04 4.447,-2.4 z m 1.458,-4.068 c 1.113,-1.069 2.229,-2.047 2.229,-3.721 0,-1.422 -1.041,-2.429 -2.504,-2.429 -1.495,0 -2.467,1.006 -2.467,2.429 0,1.119 0.72,2.37 1.492,3.512 l 0.587,0.842 z"  />
            <path d="m 874.1723,22.755004 h 7.618 c 3.231,0 6.359,1.533 6.359,6.369 0,2.256 -1.35,4.512 -3.612,5.181 v 0.066 c 3.05,0.726 4.409,3.059 4.409,6.121 0,5.037 -2.852,7.088 -8.024,7.088 h -6.75 z m 3.063,10.71 h 3.515 c 1.286,0 4.2,-0.307 4.2,-4.131 0,-2.576 -1.284,-4.069 -4.275,-4.069 h -3.439 v 8.2 z m 0,11.616 h 4.175 c 3.226,0 4.341,-2.193 4.341,-4.588 0,-3.406 -2.19,-4.731 -4.865,-4.731 h -3.65 v 9.319 z"  />
            <polygon points="939.873,159.995 926.622,159.995 926.622,135.169 939.452,135.169 939.452,137.889 929.684,137.889 929.684,145.673 938.9,145.673 938.9,148.383 929.684,148.383 929.684,157.284 939.873,157.284 " transform="translate(-17.702703,-112.414)" />
            <path d="m 947.8243,22.755004 h 4.096 l 6.677,24.825 h -3.197 l -1.777,-6.816 h -7.919 l -1.848,6.816 h -3.195 z m -1.501,15.514 h 6.678 l -3.162,-11.997 h -0.066 z"  />
            <path d="m 976.8793,22.755004 h 3.063 v 17.451 c 0,3.658 1.182,5.361 4.202,5.361 3.272,0 4.244,-1.879 4.244,-5.361 v -17.451 h 3.063 v 17.451 c 0,4.766 -2.442,7.861 -7.308,7.861 -4.966,0 -7.265,-2.747 -7.265,-7.861 v -17.451 z"  />
            <polygon points="1034.591,137.889 1028.375,137.889 1028.375,135.169 1043.911,135.169 1043.911,137.889 1037.653,137.889 1037.653,159.995 1034.591,159.995 " transform="translate(-17.702703,-112.414)" />
            <path d="m 1045.5623,22.755004 h 12.828 v 2.719 h -9.767 v 7.784 h 9.204 v 2.71 h -9.204 v 8.901 h 10.187 v 2.71 h -13.248 z m 7.157,-6.283 h 3.406 l -3.751,4.934 h -2.081 z"  />
        </g>
        <g id="g3726" class="logo_aroma">
            <path d="m 21.218297,-109.9 h 13.769 l 38.545,98.445004 h -18.196 l -8.339,-22.527 H 8.2012973 l -8.087,22.527 H -17.702703 Z m 20.219,60.901004 -13.776,-40.046 -14.027,40.046 z"  />
            <path d="m 105.9223,-109.9 h 31.088 c 17.184,0 33.356,6.119 33.356,28.226004 0,14.182 -7.454,24.61 -20.723,26.697 l 23.759,43.521 h -19.209 l -20.722,-41.715 h -11.628 v 41.715 h -15.921 z m 28.307,41.715004 c 8.97,0 19.461,-0.836 19.461,-13.628 0,-11.683 -9.857,-13.069 -18.073,-13.069 h -13.774 v 26.697 z"  />
            <path d="m 248.3203,-112.403 c 27.926,-0.56 47.642,20.025004 47.642,51.585004 0,30.733 -19.716,51.3079998 -47.642,51.8619998 -27.547,0 -47.263,-20.5729998 -47.263,-51.3039998 0,-31.561 19.716,-52.143004 47.263,-52.143004 m 0.127,87.599004 c 18.575,0 30.833,-15.575 30.833,-36.567 0,-19.606 -12.257,-35.18 -30.833,-35.18 -18.452,0 -30.71,15.573 -30.71,35.18 0,20.992 12.259,36.567 30.71,36.567"  />
            <polygon points="388.642,100.959 361.471,19.198 361.22,19.198 361.22,100.959 346.057,100.959 346.057,2.514 370.319,2.514 394.199,71.481 418.337,2.514 442.346,2.514 442.346,100.959 427.184,100.959 427.184,19.198 426.932,19.198 399.761,100.959 " transform="translate(-17.702703,-112.414)" />
            <path d="m 495.9573,-109.9 h 13.772 l 38.542,98.445004 h -18.194 l -8.341,-22.527 h -38.792 l -8.09,22.527 h -17.818 z m 20.218,60.901004 -13.774,-40.045 -14.025,40.045 z"  />
        </g>
        <g id="g3732" class="logo_zone">
            <polygon points="734.447,85.109 782.212,18.365 735.203,18.365 735.203,2.514 802.049,2.514 802.049,18.365 753.908,85.109 802.814,85.109 802.814,100.959 734.447,100.959 " transform="translate(-17.702703,-112.414)" />
            <path d="m 862.9683,-112.403 c 27.926,-0.56 47.641,20.025004 47.641,51.585004 0,30.733 -19.715,51.3079998 -47.641,51.8619998 -27.55,0 -47.262,-20.5729998 -47.262,-51.3039998 10e-4,-31.561 19.713,-52.143004 47.262,-52.143004 m 0.123,87.599004 c 18.582,0 30.84,-15.575 30.84,-36.567 0,-19.606 -12.258,-35.18 -30.84,-35.18 -18.442,0 -30.701,15.573 -30.701,35.18 0,20.992 12.259,36.567 30.701,36.567"  />
            <polygon points="977.089,25.457 976.832,25.457 976.832,100.959 960.914,100.959 960.914,2.514 982.014,2.514 1025.361,75.656 1025.606,75.931 1025.361,75.931 1025.606,75.656 1025.606,2.514 1041.528,2.514 1041.528,100.959 1021.32,100.959 " transform="translate(-17.702703,-112.414)" />
            <polygon points="1137.251,100.959 1075.714,100.959 1075.714,2.514 1134.98,2.514 1134.98,18.365 1091.639,18.365 1091.639,42.563 1132.705,42.563 1132.705,58.411 1091.639,58.411 1091.639,85.109 1137.251,85.109 " transform="translate(-17.702703,-112.414)" />
        </g>
        <g id="g3771" class="logo_feuilles">
            <path d="m 582.8053,-51.425996 c 1.057,-2.205 2.889,-4.896 4.587,-7.154 9.913,-13.169 25.674,-21.685 43.427,-21.685 h 27.646 c 7.497,0 14.263,-3.073 19.146,-8.025 0.34,-0.356 0.768,-0.522 1.153,-0.318 0.461,0.232 0.269,0.811 0.076,1.19 -1.058,2.203 -2.891,4.892 -4.59,7.153 -9.906,13.169 -25.671,21.685 -43.432,21.685 h -27.64 c -7.502,0 -14.271,3.072 -19.152,8.022 -0.332,0.358 -0.764,0.527 -1.148,0.321 -0.459,-0.234 -0.262,-0.814 -0.073,-1.189"  />
            <path d="m 678.7643,-71.132996 c -0.391,-0.199 -0.813,-0.037 -1.153,0.33 -2.78,2.818 -20.894,20.766 -46.792,20.766 v -0.004 h -27.64 c -6.069,0 -11.872,3.529 -15.787,8.94 -1.651,2.296 -3.53,4.955 -4.59,7.151 -0.188,0.375 -0.383,0.955 0.076,1.191 0.385,0.203 0.816,0.035 1.147,-0.323 4.885,-4.947 11.653,-8.02 19.153,-8.02 h 27.64 v 0.007 c 17.761,0 33.525,-8.525 43.427,-21.696 1.704,-2.256 3.537,-4.949 4.595,-7.147 0.193,-0.37 0.385,-0.963 -0.076,-1.195"  />
        </g>
    </g>
</svg>
